<?xml version="1.0" encoding="utf-8"?>
<!-- Generator: Adobe Illustrator 22.0.0, SVG Export Plug-In . SVG Version: 6.00 Build 0)  -->
<svg version="1.1" id="icon-error" xmlns="http://www.w3.org/2000/svg" xmlns:xlink="http://www.w3.org/1999/xlink" x="0px" y="0px"
	 viewBox="0 0 50 50" enable-background="new 0 0 50 50" xml:space="preserve">
<path id="mouth" fill="#C0C0C9" d="M0.2,39.7c6-3.6,15.2-6.5,24.8-6.5s18.8,2.6,24.8,6.5v3.9c-8.3-4.3-15.7-6-24.8-6
	c-8.7,0-16.5,1.8-24.8,6C0.2,43.6,0.2,39.7,0.2,39.7z"/>
<polygon id="eye-right" fill="#C0C0C9" points="45.4,10.3 43.1,7.9 38.6,12.4 34.2,8 31.9,10.3 36.3,14.7 31.9,19.2 34.2,21.5
	38.6,17.1 43.1,21.6 45.5,19.2 41,14.7 "/>
<polygon id="eye-left" fill="#C0C0C9" points="18.2,10.3 15.9,7.9 11.4,12.4 7,8 4.7,10.3 9.1,14.7 4.6,19.2 7,21.5 11.4,17.1
	15.9,21.6 18.2,19.2 13.7,14.7 "/>
</svg>
